<?xml version="1.0" encoding="utf-8"?>
<!-- Generator: Adobe Illustrator 21.1.0, SVG Export Plug-In . SVG Version: 6.00 Build 0)  -->
<svg version="1.1" id="Layer_1" xmlns="http://www.w3.org/2000/svg" xmlns:xlink="http://www.w3.org/1999/xlink" x="0px" y="0px"
	 viewBox="0 0 259 182" style="enable-background:new 0 0 259 182;" xml:space="preserve">
<style type="text/css">
	.st0{fill:#EEEBDC;stroke:#EEEBDC;stroke-miterlimit:10;}
	.st1{fill:none;stroke:#EEEBDC;stroke-width:6.75;stroke-miterlimit:10;}
	.st2{fill:#EEEBDC;}
	.st3{fill:none;stroke:#EEEBDC;stroke-linecap:square;stroke-linejoin:bevel;stroke-miterlimit:10;}
	.st4{fill:none;stroke:#EEEBDC;stroke-width:0.75;stroke-miterlimit:10;}
</style>
<g>
	<path class="st0" d="M129.8,25.7v123h-6.1V26.1c-0.7-7.7-13.8-11.3-25.8-10.9c-12,0.5-24.1,4.9-24.1,12.5v121H63.2V26.1
		c-0.7-7.7-13.8-11.3-25.8-10.9c-12,0.5-24.1,4.9-24.1,12.5v121H7.2v-121c0-12.1,15.1-18,30-18.6c13.5-0.5,28.2,3.5,31.5,13.5
		c3.6-8.6,16.4-13,29-13.5C112.5,8.5,128.9,13.5,129.8,25.7z"/>
	<polyline class="st1" points="249,145.3 146.2,145.3 146.2,9 	"/>
	<g>
		<path class="st2" d="M3.6,172.9l3.1-17.5h0.4l8.8,14.3l8.7-14.3H25l3.1,17.5H26l-2.1-12.5l-7.7,12.5h-0.6l-7.8-12.6l-2.1,12.6H3.6
			z"/>
		<path class="st2" d="M42.7,155c3.3,0,6,0.9,8.2,2.7c2.2,1.8,3.3,3.9,3.3,6.5c0,2.6-1.1,4.7-3.3,6.5c-2.2,1.8-4.9,2.7-8.1,2.7
			c-3.2,0-5.9-0.9-8.1-2.7c-2.2-1.8-3.3-3.9-3.3-6.4c0-1.7,0.5-3.2,1.5-4.7c1-1.4,2.4-2.6,4.1-3.4C38.8,155.4,40.6,155,42.7,155z
			 M42.8,156.7c-1.6,0-3.1,0.3-4.6,1c-1.4,0.7-2.6,1.6-3.4,2.7c-0.8,1.1-1.2,2.4-1.2,3.8c0,2.1,0.9,3.8,2.7,5.3
			c1.8,1.4,3.9,2.1,6.5,2.1c1.7,0,3.2-0.3,4.7-1c1.4-0.7,2.5-1.6,3.3-2.7c0.8-1.1,1.2-2.4,1.2-3.8c0-1.4-0.4-2.6-1.2-3.8
			c-0.8-1.1-1.9-2-3.4-2.7C45.9,157,44.4,156.7,42.8,156.7z"/>
		<path class="st2" d="M56.9,155.4h2.4l7.2,13.5l7.3-13.5h2.4l-9.4,17.5h-0.5L56.9,155.4z"/>
		<path class="st2" d="M79.4,155.4h2.2v17.5h-2.2V155.4z"/>
		<path class="st2" d="M86.6,172.9v-17.5h0.5l14.4,13.4v-13.4h2.1v17.5h-0.5l-14.3-13.2v13.2H86.6z"/>
		<path class="st2" d="M129.8,158.4l-1.7,1.3c-1.2-1-2.5-1.7-4-2.2s-2.8-0.7-4.2-0.7c-1.7,0-3.3,0.3-4.9,1s-2.7,1.6-3.6,2.7
			c-0.8,1.2-1.3,2.4-1.3,3.7c0,1.3,0.4,2.6,1.3,3.8s2.1,2.1,3.6,2.8s3.2,1,5.1,1c2.2,0,4.1-0.5,5.7-1.5c1.5-1,2.5-2.3,2.7-3.9h-6.9
			v-1.7h9.3c0,2.7-1,4.8-3,6.4c-2,1.6-4.6,2.4-7.9,2.4c-4,0-7.2-1.1-9.5-3.3c-1.8-1.7-2.7-3.7-2.7-5.9c0-1.7,0.5-3.2,1.5-4.6
			c1-1.4,2.4-2.5,4.2-3.3s3.8-1.2,6.1-1.2c1.8,0,3.6,0.3,5.2,0.8S128.2,157.2,129.8,158.4z"/>
	</g>
	<g>
		<path class="st2" d="M143.8,155.4h2.2v15.8h8.3v1.7h-10.5V155.4z"/>
		<path class="st2" d="M157.4,155.4h2.2v17.5h-2.2V155.4z"/>
		<path class="st2" d="M164.6,155.4h4.3c1.7,0,3,0.2,4,0.5s1.7,0.8,2.2,1.5c0.5,0.7,0.8,1.4,0.8,2.3c0,0.8-0.2,1.5-0.7,2.1
			c-0.5,0.6-1.2,1.2-2.1,1.6c1.1,0.3,2,0.7,2.6,1.1c0.6,0.4,1.1,0.9,1.4,1.5s0.5,1.2,0.5,1.9c0,1.4-0.6,2.6-1.9,3.6s-3,1.5-5.1,1.5
			h-6V155.4z M166.7,157.1v5.6h1.2c1.5,0,2.6-0.1,3.3-0.3c0.7-0.2,1.3-0.6,1.7-1.1s0.6-1,0.6-1.6c0-0.8-0.3-1.4-1-1.9
			c-0.7-0.5-1.8-0.7-3.3-0.7H166.7z M166.7,164.5v6.7h2.7c1.6,0,2.7-0.1,3.5-0.4c0.7-0.2,1.3-0.6,1.8-1.2c0.4-0.5,0.7-1.1,0.7-1.7
			c0-0.8-0.3-1.5-0.9-2c-0.6-0.6-1.5-1-2.6-1.2c-0.7-0.1-2-0.2-3.9-0.2H166.7z"/>
		<path class="st2" d="M182,155.4h4.3c2.4,0,4,0.1,4.9,0.2c1.3,0.2,2.3,0.7,3.1,1.5c0.8,0.8,1.2,1.7,1.2,2.9c0,1-0.3,1.8-0.8,2.5
			c-0.6,0.7-1.3,1.3-2.4,1.6s-2.5,0.6-4.3,0.6l7.8,8.1h-2.7l-7.8-8.1h-1.2v8.1H182V155.4z M184.1,157.1v5.9l3.7,0
			c1.4,0,2.5-0.1,3.2-0.3s1.2-0.6,1.6-1.1c0.4-0.5,0.6-1,0.6-1.6c0-0.6-0.2-1.1-0.6-1.6s-0.9-0.8-1.5-1s-1.7-0.3-3.2-0.3H184.1z"/>
		<path class="st2" d="M209,155.4l10.1,17.5h-2.3l-3.4-5.8H204l-3.4,5.8h-2.4l10.2-17.5H209z M208.7,159.1l-3.7,6.3h7.4L208.7,159.1
			z"/>
		<path class="st2" d="M222.6,155.4h4.3c2.4,0,4,0.1,4.9,0.2c1.3,0.2,2.3,0.7,3.1,1.5c0.8,0.8,1.2,1.7,1.2,2.9c0,1-0.3,1.8-0.8,2.5
			c-0.6,0.7-1.3,1.3-2.4,1.6s-2.5,0.6-4.3,0.6l7.8,8.1h-2.7l-7.8-8.1h-1.2v8.1h-2.2V155.4z M224.8,157.1v5.9l3.7,0
			c1.4,0,2.5-0.1,3.2-0.3s1.2-0.6,1.6-1.1c0.4-0.5,0.6-1,0.6-1.6c0-0.6-0.2-1.1-0.6-1.6s-0.9-0.8-1.5-1s-1.7-0.3-3.2-0.3H224.8z"/>
		<path class="st2" d="M239.1,155.4h2.5l5.5,7.2l5.5-7.2h2.5l-6.9,9.1v8.4h-2.1v-8.4L239.1,155.4z"/>
	</g>
	<path class="st3" d="M147.6,146c6.8-8.7,19.9-19.3,34.4-23.6c21.1-6.3,45.7-6,57.5-4.5"/>
	<path class="st3" d="M236.8,112.6c-19.6-2.1-36.6-1.1-55.1,6.7c-13.3,6.1-20.8,11.4-33,24.7"/>
	<path class="st3" d="M247.9,144.4c-4.7-7.5-7.3-17.3-8.5-26.5"/>
	<path class="st3" d="M147.2,10.6c10.6,4.5,23.8,6.2,36.2,6.2"/>
	<path class="st3" d="M247.9,118.9"/>
	<path class="st3" d="M183.5,17.6c3.9,29.1,0.6,52.8-3.6,72c-4.2,19.2-13.7,36.8-33.9,55.9"/>
	<path class="st3" d="M196.5,18.6c4.5,28.4,4,52.7-4.2,70.2c-10.4,22.1-23.5,33.8-46.4,56.7"/>
	<path class="st3" d="M186.3,108.3"/>
	<g>
		<path class="st2" d="M178.6,17.2c0.9,10,1.5,20,1.6,30c0,10-0.5,20-2.1,29.9c1.4-9.9,1.8-19.9,1.7-29.9c-0.2-10-0.9-20-1.9-29.9
			l0-0.4l0.8-0.1L178.6,17.2z"/>
	</g>
	<g>
		<path class="st2" d="M173.3,17.2c0.9,10,1.5,20,1.6,30c0,10-0.5,20-2.1,29.9c1.4-9.9,1.8-19.9,1.7-29.9c-0.2-10-0.9-20-1.9-29.9
			l0-0.4l0.8-0.1L173.3,17.2z"/>
	</g>
	<g>
		<path class="st2" d="M166.9,16.1c0.9,10,1.5,20,1.6,30c0,10-0.5,20-2.1,29.9c1.4-9.9,1.8-19.9,1.7-29.9c-0.2-10-0.9-20-1.9-29.9
			l0-0.4l0.8-0.1L166.9,16.1z"/>
	</g>
	<g>
		<path class="st2" d="M161.6,15c0.9,10,1.5,20,1.6,30c0,10-0.5,20-2.1,29.9C162.5,65,163,55,162.8,45c-0.2-10-0.9-20-1.9-29.9
			l0-0.4l0.8-0.1L161.6,15z"/>
	</g>
	<g>
		<path class="st2" d="M154.2,14c0.9,10,1.5,20,1.6,30c0,10-0.5,20-2.1,29.9c1.4-9.9,1.8-19.9,1.7-29.9c-0.2-10-0.9-20-1.9-29.9
			l0-0.4l0.8-0.1L154.2,14z"/>
	</g>
	<g>
		<path class="st2" d="M240.1,122.3c-8.5-1-17.1-1.3-25.6-1c-8.5,0.3-17.1,1.3-25.5,2.8c8.4-1.6,16.9-2.7,25.5-3.1
			c8.6-0.5,17.2-0.2,25.7,0.6l0.4,0l-0.1,0.8L240.1,122.3z"/>
	</g>
	<g>
		<path class="st2" d="M240.1,126.6c-8.5-1-17.1-1.3-25.6-1c-8.5,0.3-17.1,1.3-25.5,2.8c8.4-1.6,16.9-2.7,25.5-3.1
			c8.6-0.5,17.2-0.2,25.7,0.6l0.4,0l-0.1,0.8L240.1,126.6z"/>
	</g>
	<g>
		<path class="st2" d="M241.1,130.8c-8.5-1-17.1-1.3-25.6-1c-8.5,0.3-17.1,1.3-25.5,2.8c8.4-1.6,16.9-2.7,25.5-3.1
			c8.6-0.5,17.2-0.2,25.7,0.6l0.4,0l-0.1,0.8L241.1,130.8z"/>
	</g>
	<g>
		<path class="st2" d="M242.2,134c-8.5-1-17.1-1.3-25.6-1c-8.5,0.3-17.1,1.3-25.5,2.8c8.4-1.6,16.9-2.7,25.5-3.1
			c8.6-0.5,17.2-0.2,25.7,0.6l0.4,0l-0.1,0.8L242.2,134z"/>
	</g>
	<g>
		<path class="st2" d="M244.3,138.2c-8.5-1-17.1-1.3-25.6-1c-8.5,0.3-17.1,1.3-25.5,2.8c8.4-1.6,16.9-2.7,25.5-3.1
			c8.6-0.5,17.2-0.2,25.7,0.6l0.4,0l-0.1,0.8L244.3,138.2z"/>
	</g>
	<path class="st2" d="M20.7,146.5c-0.3,0.1-0.6,0.2-0.9,0.4h-0.2c0.2-20.5,0.4-41,0.5-61.4l0.4-61.4l0.2,61.4
		C20.8,105.7,20.7,126.1,20.7,146.5z"/>
	<path class="st2" d="M29.6,144.8c-0.4,0-0.7,0.1-1,0.1c0.2-19.8,0.4-39.7,0.5-59.5l0.4-61.4l0.2,61.4
		C29.7,105.2,29.6,125,29.6,144.8z"/>
	<path class="st2" d="M38.5,144.4H38c-0.2,0-0.4,0-0.5,0c0.2-19.7,0.4-39.4,0.5-59.1l0.4-61.4l0.2,61.4
		C38.6,105,38.5,124.7,38.5,144.4z"/>
	<path class="st2" d="M47.4,144.9c-0.3,0-0.7-0.1-1-0.1c0.2-19.8,0.4-39.6,0.5-59.4l0.4-61.4l0.2,61.4
		C47.5,105.2,47.4,125.1,47.4,144.9z"/>
	<path class="st2" d="M56.2,146.8h-0.1c-0.3-0.1-0.6-0.2-0.9-0.4c0.2-20.4,0.5-40.7,0.5-61.1l0.4-61.4l0.2,61.4
		C56.3,105.8,56.2,126.3,56.2,146.8z"/>
	<path class="st2" d="M81.3,146.5c-0.3,0.1-0.6,0.2-0.9,0.4h-0.2c0.2-20.5,0.4-41,0.5-61.4l0.4-61.4l0.2,61.4
		C81.3,105.7,81.2,126.1,81.3,146.5z"/>
	<path class="st2" d="M90.1,144.8c-0.4,0-0.7,0.1-1,0.1c0.2-19.8,0.4-39.7,0.5-59.5L90,23.9l0.2,61.4
		C90.2,105.2,90.1,125,90.1,144.8z"/>
	<path class="st2" d="M99,144.4h-0.5c-0.2,0-0.4,0-0.5,0c0.2-19.7,0.4-39.4,0.5-59.1l0.4-61.4L99,85.4C99.1,105,99,124.7,99,144.4z"
		/>
	<path class="st2" d="M107.9,144.9c-0.3,0-0.7-0.1-1-0.1c0.2-19.8,0.4-39.6,0.5-59.4l0.4-61.4l0.2,61.4
		C108,105.2,107.9,125.1,107.9,144.9z"/>
	<path class="st2" d="M116.7,146.8h-0.1c-0.3-0.1-0.6-0.2-0.9-0.4c0.2-20.4,0.5-40.7,0.5-61.1l0.4-61.4l0.2,61.4
		C116.8,105.8,116.7,126.3,116.7,146.8z"/>
	<path class="st4" d="M13.3,148.6c16-5.9,33.8-6.2,49.7,0.1"/>
	<path class="st4" d="M73.8,148.6c16-5.9,33.8-6.2,49.7,0.1"/>
</g>
</svg>
